<mxfile host="app.diagrams.net" agent="Mozilla/5.0 (Windows NT 10.0; Win64; x64) AppleWebKit/537.36 (KHTML, like Gecko) Chrome/131.0.0.0 Safari/537.36" version="25.0.3">
  <diagram name="Trang-1" id="EYynIqky8UjTQTY3XjOU">
    <mxGraphModel dx="3100" dy="1217" grid="0" gridSize="10" guides="1" tooltips="1" connect="1" arrows="1" fold="1" page="0" pageScale="1" pageWidth="850" pageHeight="1100" math="0" shadow="0">
      <root>
        <mxCell id="0" />
        <mxCell id="1" parent="0" />
        <mxCell id="llGVALfnyq3asNNG6BGE-1" value="GIAOVIEN" style="whiteSpace=wrap;html=1;align=center;" vertex="1" parent="1">
          <mxGeometry x="-299" y="81.5" width="100" height="40" as="geometry" />
        </mxCell>
        <mxCell id="llGVALfnyq3asNNG6BGE-2" value="MONHOC" style="whiteSpace=wrap;html=1;align=center;" vertex="1" parent="1">
          <mxGeometry x="93" y="84" width="100" height="40" as="geometry" />
        </mxCell>
        <mxCell id="llGVALfnyq3asNNG6BGE-3" value="LOP" style="whiteSpace=wrap;html=1;align=center;" vertex="1" parent="1">
          <mxGeometry x="507" y="81.5" width="100" height="40" as="geometry" />
        </mxCell>
        <mxCell id="llGVALfnyq3asNNG6BGE-4" value="KHOA" style="whiteSpace=wrap;html=1;align=center;" vertex="1" parent="1">
          <mxGeometry x="151" y="311" width="100" height="40" as="geometry" />
        </mxCell>
        <mxCell id="llGVALfnyq3asNNG6BGE-5" value="LICHBAOGIANG" style="whiteSpace=wrap;html=1;align=center;" vertex="1" parent="1">
          <mxGeometry x="-215" y="290" width="100" height="40" as="geometry" />
        </mxCell>
        <mxCell id="llGVALfnyq3asNNG6BGE-6" value="PHONGHOC" style="whiteSpace=wrap;html=1;align=center;" vertex="1" parent="1">
          <mxGeometry x="520" y="268" width="100" height="40" as="geometry" />
        </mxCell>
        <mxCell id="llGVALfnyq3asNNG6BGE-7" value="MAGV" style="ellipse;whiteSpace=wrap;html=1;align=center;fontStyle=4;" vertex="1" parent="1">
          <mxGeometry x="-415" y="-21.5" width="100" height="40" as="geometry" />
        </mxCell>
        <mxCell id="llGVALfnyq3asNNG6BGE-8" value="DTGV" style="ellipse;whiteSpace=wrap;html=1;align=center;" vertex="1" parent="1">
          <mxGeometry x="-178" y="-12.5" width="100" height="40" as="geometry" />
        </mxCell>
        <mxCell id="llGVALfnyq3asNNG6BGE-9" value="HOTEN" style="ellipse;whiteSpace=wrap;html=1;align=center;" vertex="1" parent="1">
          <mxGeometry x="-299" y="-47.5" width="100" height="40" as="geometry" />
        </mxCell>
        <mxCell id="llGVALfnyq3asNNG6BGE-10" value="" style="endArrow=none;html=1;rounded=0;fontSize=12;startSize=8;endSize=8;curved=1;exitX=0.5;exitY=1;exitDx=0;exitDy=0;entryX=0;entryY=0;entryDx=0;entryDy=0;" edge="1" parent="1" source="llGVALfnyq3asNNG6BGE-7" target="llGVALfnyq3asNNG6BGE-1">
          <mxGeometry relative="1" as="geometry">
            <mxPoint x="36" y="200.5" as="sourcePoint" />
            <mxPoint x="196" y="200.5" as="targetPoint" />
          </mxGeometry>
        </mxCell>
        <mxCell id="llGVALfnyq3asNNG6BGE-11" value="" style="endArrow=none;html=1;rounded=0;fontSize=12;startSize=8;endSize=8;curved=1;exitX=0.5;exitY=1;exitDx=0;exitDy=0;entryX=0.5;entryY=0;entryDx=0;entryDy=0;" edge="1" parent="1" source="llGVALfnyq3asNNG6BGE-9" target="llGVALfnyq3asNNG6BGE-1">
          <mxGeometry relative="1" as="geometry">
            <mxPoint x="-355" y="28.5" as="sourcePoint" />
            <mxPoint x="-289" y="91.5" as="targetPoint" />
          </mxGeometry>
        </mxCell>
        <mxCell id="llGVALfnyq3asNNG6BGE-12" value="" style="endArrow=none;html=1;rounded=0;fontSize=12;startSize=8;endSize=8;curved=1;exitX=0.5;exitY=1;exitDx=0;exitDy=0;entryX=1;entryY=0.25;entryDx=0;entryDy=0;" edge="1" parent="1" source="llGVALfnyq3asNNG6BGE-8" target="llGVALfnyq3asNNG6BGE-1">
          <mxGeometry relative="1" as="geometry">
            <mxPoint x="-239" y="2.5" as="sourcePoint" />
            <mxPoint x="-239" y="91.5" as="targetPoint" />
          </mxGeometry>
        </mxCell>
        <mxCell id="llGVALfnyq3asNNG6BGE-14" value="MAMH" style="ellipse;whiteSpace=wrap;html=1;align=center;fontStyle=4;" vertex="1" parent="1">
          <mxGeometry x="71" y="-18" width="100" height="40" as="geometry" />
        </mxCell>
        <mxCell id="llGVALfnyq3asNNG6BGE-16" value="TENMH" style="ellipse;whiteSpace=wrap;html=1;align=center;" vertex="1" parent="1">
          <mxGeometry x="179" y="-18" width="100" height="40" as="geometry" />
        </mxCell>
        <mxCell id="llGVALfnyq3asNNG6BGE-17" value="" style="endArrow=none;html=1;rounded=0;fontSize=12;startSize=8;endSize=8;curved=1;exitX=0.5;exitY=1;exitDx=0;exitDy=0;entryX=0.5;entryY=0;entryDx=0;entryDy=0;" edge="1" parent="1" source="llGVALfnyq3asNNG6BGE-14" target="llGVALfnyq3asNNG6BGE-2">
          <mxGeometry relative="1" as="geometry">
            <mxPoint x="-271" y="27" as="sourcePoint" />
            <mxPoint x="-205" y="90" as="targetPoint" />
          </mxGeometry>
        </mxCell>
        <mxCell id="llGVALfnyq3asNNG6BGE-18" value="" style="endArrow=none;html=1;rounded=0;fontSize=12;startSize=8;endSize=8;curved=1;exitX=0.5;exitY=1;exitDx=0;exitDy=0;entryX=1;entryY=0;entryDx=0;entryDy=0;" edge="1" parent="1" source="llGVALfnyq3asNNG6BGE-16" target="llGVALfnyq3asNNG6BGE-2">
          <mxGeometry relative="1" as="geometry">
            <mxPoint x="131" y="32" as="sourcePoint" />
            <mxPoint x="153" y="94" as="targetPoint" />
          </mxGeometry>
        </mxCell>
        <mxCell id="llGVALfnyq3asNNG6BGE-19" value="MALOP" style="ellipse;whiteSpace=wrap;html=1;align=center;fontStyle=4;" vertex="1" parent="1">
          <mxGeometry x="516" y="-27.5" width="100" height="40" as="geometry" />
        </mxCell>
        <mxCell id="llGVALfnyq3asNNG6BGE-20" value="SISO" style="ellipse;whiteSpace=wrap;html=1;align=center;" vertex="1" parent="1">
          <mxGeometry x="616" y="10.5" width="100" height="40" as="geometry" />
        </mxCell>
        <mxCell id="llGVALfnyq3asNNG6BGE-21" value="TENLOP" style="ellipse;whiteSpace=wrap;html=1;align=center;" vertex="1" parent="1">
          <mxGeometry x="407" y="12.5" width="100" height="40" as="geometry" />
        </mxCell>
        <mxCell id="llGVALfnyq3asNNG6BGE-22" value="" style="endArrow=none;html=1;rounded=0;fontSize=12;startSize=8;endSize=8;curved=1;exitX=0.5;exitY=1;exitDx=0;exitDy=0;entryX=0;entryY=0.5;entryDx=0;entryDy=0;" edge="1" parent="1" target="llGVALfnyq3asNNG6BGE-3">
          <mxGeometry relative="1" as="geometry">
            <mxPoint x="466" y="52.5" as="sourcePoint" />
            <mxPoint x="336" y="87.5" as="targetPoint" />
          </mxGeometry>
        </mxCell>
        <mxCell id="llGVALfnyq3asNNG6BGE-23" value="" style="endArrow=none;html=1;rounded=0;fontSize=12;startSize=8;endSize=8;curved=1;exitX=0.5;exitY=1;exitDx=0;exitDy=0;entryX=0.5;entryY=0;entryDx=0;entryDy=0;" edge="1" parent="1" source="llGVALfnyq3asNNG6BGE-19" target="llGVALfnyq3asNNG6BGE-3">
          <mxGeometry relative="1" as="geometry">
            <mxPoint x="476" y="62.5" as="sourcePoint" />
            <mxPoint x="517" y="111.5" as="targetPoint" />
          </mxGeometry>
        </mxCell>
        <mxCell id="llGVALfnyq3asNNG6BGE-24" value="" style="endArrow=none;html=1;rounded=0;fontSize=12;startSize=8;endSize=8;curved=1;exitX=0.5;exitY=1;exitDx=0;exitDy=0;entryX=1;entryY=0.5;entryDx=0;entryDy=0;" edge="1" parent="1" source="llGVALfnyq3asNNG6BGE-20" target="llGVALfnyq3asNNG6BGE-3">
          <mxGeometry relative="1" as="geometry">
            <mxPoint x="576" y="22.5" as="sourcePoint" />
            <mxPoint x="567" y="91.5" as="targetPoint" />
          </mxGeometry>
        </mxCell>
        <mxCell id="llGVALfnyq3asNNG6BGE-25" value="SOPHONG" style="ellipse;whiteSpace=wrap;html=1;align=center;fontStyle=4;" vertex="1" parent="1">
          <mxGeometry x="463" y="386" width="100" height="40" as="geometry" />
        </mxCell>
        <mxCell id="llGVALfnyq3asNNG6BGE-27" value="CHUCNANG" style="ellipse;whiteSpace=wrap;html=1;align=center;" vertex="1" parent="1">
          <mxGeometry x="592" y="367" width="100" height="40" as="geometry" />
        </mxCell>
        <mxCell id="llGVALfnyq3asNNG6BGE-28" value="" style="endArrow=none;html=1;rounded=0;fontSize=12;startSize=8;endSize=8;curved=1;exitX=0;exitY=0.5;exitDx=0;exitDy=0;entryX=0.5;entryY=0;entryDx=0;entryDy=0;" edge="1" parent="1" source="llGVALfnyq3asNNG6BGE-6" target="llGVALfnyq3asNNG6BGE-25">
          <mxGeometry relative="1" as="geometry">
            <mxPoint x="543" y="67" as="sourcePoint" />
            <mxPoint x="484" y="118" as="targetPoint" />
          </mxGeometry>
        </mxCell>
        <mxCell id="llGVALfnyq3asNNG6BGE-29" value="" style="endArrow=none;html=1;rounded=0;fontSize=12;startSize=8;endSize=8;curved=1;entryX=0.5;entryY=0;entryDx=0;entryDy=0;exitX=0.5;exitY=1;exitDx=0;exitDy=0;" edge="1" parent="1" source="llGVALfnyq3asNNG6BGE-6" target="llGVALfnyq3asNNG6BGE-27">
          <mxGeometry relative="1" as="geometry">
            <mxPoint x="576" y="346" as="sourcePoint" />
            <mxPoint x="484" y="118" as="targetPoint" />
          </mxGeometry>
        </mxCell>
        <mxCell id="llGVALfnyq3asNNG6BGE-30" value="MAKHOA" style="ellipse;whiteSpace=wrap;html=1;align=center;fontStyle=4;" vertex="1" parent="1">
          <mxGeometry x="55" y="386" width="100" height="40" as="geometry" />
        </mxCell>
        <mxCell id="llGVALfnyq3asNNG6BGE-31" value="TENKHOA" style="ellipse;whiteSpace=wrap;html=1;align=center;" vertex="1" parent="1">
          <mxGeometry x="165" y="391" width="100" height="40" as="geometry" />
        </mxCell>
        <mxCell id="llGVALfnyq3asNNG6BGE-32" value="DTKHOA" style="ellipse;whiteSpace=wrap;html=1;align=center;" vertex="1" parent="1">
          <mxGeometry x="276" y="393" width="100" height="40" as="geometry" />
        </mxCell>
        <mxCell id="llGVALfnyq3asNNG6BGE-33" value="" style="endArrow=none;html=1;rounded=0;fontSize=12;startSize=8;endSize=8;curved=1;exitX=0;exitY=0.25;exitDx=0;exitDy=0;entryX=0.5;entryY=0;entryDx=0;entryDy=0;" edge="1" parent="1" source="llGVALfnyq3asNNG6BGE-4" target="llGVALfnyq3asNNG6BGE-30">
          <mxGeometry relative="1" as="geometry">
            <mxPoint x="530" y="298" as="sourcePoint" />
            <mxPoint x="491" y="244" as="targetPoint" />
          </mxGeometry>
        </mxCell>
        <mxCell id="llGVALfnyq3asNNG6BGE-34" value="" style="endArrow=none;html=1;rounded=0;fontSize=12;startSize=8;endSize=8;curved=1;exitX=0.5;exitY=1;exitDx=0;exitDy=0;entryX=0.5;entryY=0;entryDx=0;entryDy=0;" edge="1" parent="1" source="llGVALfnyq3asNNG6BGE-4" target="llGVALfnyq3asNNG6BGE-31">
          <mxGeometry relative="1" as="geometry">
            <mxPoint x="530" y="298" as="sourcePoint" />
            <mxPoint x="491" y="244" as="targetPoint" />
          </mxGeometry>
        </mxCell>
        <mxCell id="llGVALfnyq3asNNG6BGE-36" value="" style="endArrow=none;html=1;rounded=0;fontSize=12;startSize=8;endSize=8;curved=1;exitX=1;exitY=0.5;exitDx=0;exitDy=0;entryX=0.5;entryY=0;entryDx=0;entryDy=0;" edge="1" parent="1" source="llGVALfnyq3asNNG6BGE-4" target="llGVALfnyq3asNNG6BGE-32">
          <mxGeometry relative="1" as="geometry">
            <mxPoint x="530" y="298" as="sourcePoint" />
            <mxPoint x="491" y="244" as="targetPoint" />
          </mxGeometry>
        </mxCell>
        <mxCell id="llGVALfnyq3asNNG6BGE-37" value="NGAYDAY" style="ellipse;whiteSpace=wrap;html=1;align=center;" vertex="1" parent="1">
          <mxGeometry x="-333" y="360" width="100" height="40" as="geometry" />
        </mxCell>
        <mxCell id="llGVALfnyq3asNNG6BGE-38" value="TUTIET" style="ellipse;whiteSpace=wrap;html=1;align=center;" vertex="1" parent="1">
          <mxGeometry x="-213" y="400" width="100" height="40" as="geometry" />
        </mxCell>
        <mxCell id="llGVALfnyq3asNNG6BGE-39" value="DENTIET" style="ellipse;whiteSpace=wrap;html=1;align=center;" vertex="1" parent="1">
          <mxGeometry x="-94" y="367" width="100" height="40" as="geometry" />
        </mxCell>
        <mxCell id="llGVALfnyq3asNNG6BGE-40" value="BAIDAY" style="ellipse;whiteSpace=wrap;html=1;align=center;" vertex="1" parent="1">
          <mxGeometry x="-371" y="286" width="100" height="39" as="geometry" />
        </mxCell>
        <mxCell id="llGVALfnyq3asNNG6BGE-41" value="Day" style="shape=rhombus;perimeter=rhombusPerimeter;whiteSpace=wrap;html=1;align=center;" vertex="1" parent="1">
          <mxGeometry x="-104" y="71.5" width="120" height="60" as="geometry" />
        </mxCell>
        <mxCell id="llGVALfnyq3asNNG6BGE-42" value="" style="endArrow=none;html=1;rounded=0;fontSize=12;startSize=8;endSize=8;curved=1;entryX=0;entryY=0.5;entryDx=0;entryDy=0;exitX=1;exitY=0.5;exitDx=0;exitDy=0;" edge="1" parent="1" source="llGVALfnyq3asNNG6BGE-1" target="llGVALfnyq3asNNG6BGE-41">
          <mxGeometry relative="1" as="geometry">
            <mxPoint x="-267" y="211" as="sourcePoint" />
            <mxPoint x="-107" y="211" as="targetPoint" />
          </mxGeometry>
        </mxCell>
        <mxCell id="llGVALfnyq3asNNG6BGE-43" value="" style="endArrow=none;html=1;rounded=0;fontSize=12;startSize=8;endSize=8;curved=1;entryX=0;entryY=0.5;entryDx=0;entryDy=0;" edge="1" parent="1" target="llGVALfnyq3asNNG6BGE-2">
          <mxGeometry relative="1" as="geometry">
            <mxPoint x="17" y="102" as="sourcePoint" />
            <mxPoint x="-94" y="112" as="targetPoint" />
          </mxGeometry>
        </mxCell>
        <mxCell id="llGVALfnyq3asNNG6BGE-44" value="1-n" style="text;html=1;align=center;verticalAlign=middle;whiteSpace=wrap;rounded=0;fontSize=16;" vertex="1" parent="1">
          <mxGeometry x="27" y="71.5" width="60" height="30" as="geometry" />
        </mxCell>
        <mxCell id="llGVALfnyq3asNNG6BGE-45" value="1-1" style="text;html=1;align=center;verticalAlign=middle;whiteSpace=wrap;rounded=0;fontSize=16;" vertex="1" parent="1">
          <mxGeometry x="-181" y="71.5" width="60" height="30" as="geometry" />
        </mxCell>
        <mxCell id="llGVALfnyq3asNNG6BGE-46" value="Co" style="shape=rhombus;perimeter=rhombusPerimeter;whiteSpace=wrap;html=1;align=center;" vertex="1" parent="1">
          <mxGeometry x="276" y="71.5" width="120" height="60" as="geometry" />
        </mxCell>
        <mxCell id="llGVALfnyq3asNNG6BGE-48" value="" style="endArrow=none;html=1;rounded=0;fontSize=12;startSize=8;endSize=8;curved=1;entryX=0;entryY=0.5;entryDx=0;entryDy=0;exitX=1;exitY=0.5;exitDx=0;exitDy=0;" edge="1" parent="1" source="llGVALfnyq3asNNG6BGE-2" target="llGVALfnyq3asNNG6BGE-46">
          <mxGeometry relative="1" as="geometry">
            <mxPoint x="196" y="102" as="sourcePoint" />
            <mxPoint x="-94" y="112" as="targetPoint" />
          </mxGeometry>
        </mxCell>
        <mxCell id="llGVALfnyq3asNNG6BGE-49" value="" style="endArrow=none;html=1;rounded=0;fontSize=12;startSize=8;endSize=8;curved=1;entryX=0;entryY=0.5;entryDx=0;entryDy=0;exitX=1;exitY=0.5;exitDx=0;exitDy=0;" edge="1" parent="1" source="llGVALfnyq3asNNG6BGE-46" target="llGVALfnyq3asNNG6BGE-3">
          <mxGeometry relative="1" as="geometry">
            <mxPoint x="203" y="114" as="sourcePoint" />
            <mxPoint x="286" y="112" as="targetPoint" />
          </mxGeometry>
        </mxCell>
        <mxCell id="llGVALfnyq3asNNG6BGE-50" value="1-n" style="text;html=1;align=center;verticalAlign=middle;whiteSpace=wrap;rounded=0;fontSize=16;" vertex="1" parent="1">
          <mxGeometry x="403" y="71.5" width="60" height="30" as="geometry" />
        </mxCell>
        <mxCell id="llGVALfnyq3asNNG6BGE-51" value="1-n" style="text;html=1;align=center;verticalAlign=middle;whiteSpace=wrap;rounded=0;fontSize=16;" vertex="1" parent="1">
          <mxGeometry x="199" y="71.5" width="60" height="30" as="geometry" />
        </mxCell>
        <mxCell id="llGVALfnyq3asNNG6BGE-52" value="Thuoc" style="shape=rhombus;perimeter=rhombusPerimeter;whiteSpace=wrap;html=1;align=center;" vertex="1" parent="1">
          <mxGeometry x="-100" y="191" width="120" height="60" as="geometry" />
        </mxCell>
        <mxCell id="llGVALfnyq3asNNG6BGE-53" value="" style="endArrow=none;html=1;rounded=0;fontSize=12;startSize=8;endSize=8;curved=1;entryX=0.5;entryY=0;entryDx=0;entryDy=0;" edge="1" parent="1" source="llGVALfnyq3asNNG6BGE-52" target="llGVALfnyq3asNNG6BGE-4">
          <mxGeometry relative="1" as="geometry">
            <mxPoint x="261" y="341" as="sourcePoint" />
            <mxPoint x="336" y="403" as="targetPoint" />
          </mxGeometry>
        </mxCell>
        <mxCell id="llGVALfnyq3asNNG6BGE-54" value="" style="endArrow=none;html=1;rounded=0;fontSize=12;startSize=8;endSize=8;curved=1;exitX=0.5;exitY=1;exitDx=0;exitDy=0;" edge="1" parent="1" source="llGVALfnyq3asNNG6BGE-1" target="llGVALfnyq3asNNG6BGE-52">
          <mxGeometry relative="1" as="geometry">
            <mxPoint x="4" y="244" as="sourcePoint" />
            <mxPoint x="211" y="321" as="targetPoint" />
          </mxGeometry>
        </mxCell>
        <mxCell id="llGVALfnyq3asNNG6BGE-55" value="1-1" style="text;html=1;align=center;verticalAlign=middle;whiteSpace=wrap;rounded=0;fontSize=16;" vertex="1" parent="1">
          <mxGeometry x="85" y="244" width="60" height="30" as="geometry" />
        </mxCell>
        <mxCell id="llGVALfnyq3asNNG6BGE-56" value="1-n" style="text;html=1;align=center;verticalAlign=middle;whiteSpace=wrap;rounded=0;fontSize=16;" vertex="1" parent="1">
          <mxGeometry x="-173" y="140" width="60" height="30" as="geometry" />
        </mxCell>
        <mxCell id="llGVALfnyq3asNNG6BGE-57" value="Thuoc" style="shape=rhombus;perimeter=rhombusPerimeter;whiteSpace=wrap;html=1;align=center;" vertex="1" parent="1">
          <mxGeometry x="159" y="174" width="120" height="60" as="geometry" />
        </mxCell>
        <mxCell id="llGVALfnyq3asNNG6BGE-58" value="" style="endArrow=none;html=1;rounded=0;fontSize=12;startSize=8;endSize=8;curved=1;entryX=0.75;entryY=0;entryDx=0;entryDy=0;exitX=0.5;exitY=1;exitDx=0;exitDy=0;" edge="1" parent="1" source="llGVALfnyq3asNNG6BGE-57" target="llGVALfnyq3asNNG6BGE-4">
          <mxGeometry relative="1" as="geometry">
            <mxPoint x="4" y="244" as="sourcePoint" />
            <mxPoint x="211" y="321" as="targetPoint" />
          </mxGeometry>
        </mxCell>
        <mxCell id="llGVALfnyq3asNNG6BGE-59" value="" style="endArrow=none;html=1;rounded=0;fontSize=12;startSize=8;endSize=8;curved=1;entryX=0;entryY=0;entryDx=0;entryDy=0;exitX=0.5;exitY=1;exitDx=0;exitDy=0;" edge="1" parent="1" source="llGVALfnyq3asNNG6BGE-2" target="llGVALfnyq3asNNG6BGE-57">
          <mxGeometry relative="1" as="geometry">
            <mxPoint x="229" y="244" as="sourcePoint" />
            <mxPoint x="236" y="321" as="targetPoint" />
          </mxGeometry>
        </mxCell>
        <mxCell id="llGVALfnyq3asNNG6BGE-60" value="1-n" style="text;html=1;align=center;verticalAlign=middle;whiteSpace=wrap;rounded=0;fontSize=16;" vertex="1" parent="1">
          <mxGeometry x="157" y="135" width="60" height="30" as="geometry" />
        </mxCell>
        <mxCell id="llGVALfnyq3asNNG6BGE-61" value="1-1" style="text;html=1;align=center;verticalAlign=middle;whiteSpace=wrap;rounded=0;fontSize=16;" vertex="1" parent="1">
          <mxGeometry x="211" y="262" width="60" height="30" as="geometry" />
        </mxCell>
        <mxCell id="llGVALfnyq3asNNG6BGE-62" value="" style="endArrow=none;html=1;rounded=0;fontSize=12;startSize=8;endSize=8;curved=1;exitX=0;exitY=0.5;exitDx=0;exitDy=0;entryX=1;entryY=0.5;entryDx=0;entryDy=0;" edge="1" parent="1" source="llGVALfnyq3asNNG6BGE-5" target="llGVALfnyq3asNNG6BGE-40">
          <mxGeometry relative="1" as="geometry">
            <mxPoint x="-239" y="3" as="sourcePoint" />
            <mxPoint x="-239" y="92" as="targetPoint" />
          </mxGeometry>
        </mxCell>
        <mxCell id="llGVALfnyq3asNNG6BGE-63" value="" style="endArrow=none;html=1;rounded=0;fontSize=12;startSize=8;endSize=8;curved=1;exitX=0;exitY=1;exitDx=0;exitDy=0;entryX=1;entryY=0;entryDx=0;entryDy=0;" edge="1" parent="1" source="llGVALfnyq3asNNG6BGE-5" target="llGVALfnyq3asNNG6BGE-37">
          <mxGeometry relative="1" as="geometry">
            <mxPoint x="-205" y="320" as="sourcePoint" />
            <mxPoint x="-261" y="316" as="targetPoint" />
          </mxGeometry>
        </mxCell>
        <mxCell id="llGVALfnyq3asNNG6BGE-64" value="" style="endArrow=none;html=1;rounded=0;fontSize=12;startSize=8;endSize=8;curved=1;exitX=0.5;exitY=1;exitDx=0;exitDy=0;entryX=0.5;entryY=0;entryDx=0;entryDy=0;" edge="1" parent="1" source="llGVALfnyq3asNNG6BGE-5" target="llGVALfnyq3asNNG6BGE-38">
          <mxGeometry relative="1" as="geometry">
            <mxPoint x="-205" y="340" as="sourcePoint" />
            <mxPoint x="-238" y="376" as="targetPoint" />
          </mxGeometry>
        </mxCell>
        <mxCell id="llGVALfnyq3asNNG6BGE-65" value="" style="endArrow=none;html=1;rounded=0;fontSize=12;startSize=8;endSize=8;curved=1;exitX=0.088;exitY=0.3;exitDx=0;exitDy=0;entryX=1;entryY=1;entryDx=0;entryDy=0;exitPerimeter=0;" edge="1" parent="1" source="llGVALfnyq3asNNG6BGE-39" target="llGVALfnyq3asNNG6BGE-5">
          <mxGeometry relative="1" as="geometry">
            <mxPoint x="-155" y="340" as="sourcePoint" />
            <mxPoint x="-153" y="410" as="targetPoint" />
          </mxGeometry>
        </mxCell>
        <mxCell id="llGVALfnyq3asNNG6BGE-66" value="CO" style="shape=rhombus;perimeter=rhombusPerimeter;whiteSpace=wrap;html=1;align=center;" vertex="1" parent="1">
          <mxGeometry x="-329" y="179" width="120" height="60" as="geometry" />
        </mxCell>
        <mxCell id="llGVALfnyq3asNNG6BGE-67" value="" style="endArrow=none;html=1;rounded=0;fontSize=12;startSize=8;endSize=8;curved=1;exitX=1;exitY=1;exitDx=0;exitDy=0;entryX=0.5;entryY=0;entryDx=0;entryDy=0;" edge="1" parent="1" source="llGVALfnyq3asNNG6BGE-66" target="llGVALfnyq3asNNG6BGE-5">
          <mxGeometry relative="1" as="geometry">
            <mxPoint x="-239" y="132" as="sourcePoint" />
            <mxPoint x="-61" y="216" as="targetPoint" />
          </mxGeometry>
        </mxCell>
        <mxCell id="llGVALfnyq3asNNG6BGE-68" value="" style="endArrow=none;html=1;rounded=0;fontSize=12;startSize=8;endSize=8;curved=1;entryX=0.5;entryY=0;entryDx=0;entryDy=0;exitX=0.34;exitY=1.013;exitDx=0;exitDy=0;exitPerimeter=0;" edge="1" parent="1" source="llGVALfnyq3asNNG6BGE-1" target="llGVALfnyq3asNNG6BGE-66">
          <mxGeometry relative="1" as="geometry">
            <mxPoint x="-152" y="239" as="sourcePoint" />
            <mxPoint x="55" y="316" as="targetPoint" />
          </mxGeometry>
        </mxCell>
        <mxCell id="llGVALfnyq3asNNG6BGE-69" value="1-n" style="text;html=1;align=center;verticalAlign=middle;whiteSpace=wrap;rounded=0;fontSize=16;" vertex="1" parent="1">
          <mxGeometry x="-184" y="256" width="60" height="30" as="geometry" />
        </mxCell>
        <mxCell id="llGVALfnyq3asNNG6BGE-70" value="1-1" style="text;html=1;align=center;verticalAlign=middle;whiteSpace=wrap;rounded=0;fontSize=16;" vertex="1" parent="1">
          <mxGeometry x="-265" y="152" width="60" height="30" as="geometry" />
        </mxCell>
        <mxCell id="llGVALfnyq3asNNG6BGE-71" value="Thuoc" style="shape=rhombus;perimeter=rhombusPerimeter;whiteSpace=wrap;html=1;align=center;" vertex="1" parent="1">
          <mxGeometry x="766" y="179" width="120" height="60" as="geometry" />
        </mxCell>
        <mxCell id="llGVALfnyq3asNNG6BGE-73" value="" style="endArrow=none;html=1;rounded=0;fontSize=12;startSize=8;endSize=8;curved=1;entryX=0.06;entryY=0.56;entryDx=0;entryDy=0;exitX=0.75;exitY=1;exitDx=0;exitDy=0;entryPerimeter=0;" edge="1" parent="1" source="llGVALfnyq3asNNG6BGE-3" target="llGVALfnyq3asNNG6BGE-71">
          <mxGeometry relative="1" as="geometry">
            <mxPoint x="580" y="318" as="sourcePoint" />
            <mxPoint x="652" y="377" as="targetPoint" />
          </mxGeometry>
        </mxCell>
        <mxCell id="llGVALfnyq3asNNG6BGE-74" value="" style="endArrow=none;html=1;rounded=0;fontSize=12;startSize=8;endSize=8;curved=1;entryX=0.5;entryY=1;entryDx=0;entryDy=0;exitX=1;exitY=0.5;exitDx=0;exitDy=0;" edge="1" parent="1" source="llGVALfnyq3asNNG6BGE-6" target="llGVALfnyq3asNNG6BGE-71">
          <mxGeometry relative="1" as="geometry">
            <mxPoint x="592" y="132" as="sourcePoint" />
            <mxPoint x="783" y="212" as="targetPoint" />
          </mxGeometry>
        </mxCell>
        <mxCell id="llGVALfnyq3asNNG6BGE-75" value="1-n" style="text;html=1;align=center;verticalAlign=middle;whiteSpace=wrap;rounded=0;fontSize=16;" vertex="1" parent="1">
          <mxGeometry x="659" y="131.5" width="60" height="30" as="geometry" />
        </mxCell>
        <mxCell id="llGVALfnyq3asNNG6BGE-76" value="1-n" style="text;html=1;align=center;verticalAlign=middle;whiteSpace=wrap;rounded=0;fontSize=16;" vertex="1" parent="1">
          <mxGeometry x="706" y="268" width="60" height="30" as="geometry" />
        </mxCell>
        <mxCell id="llGVALfnyq3asNNG6BGE-77" value="Thuoc" style="shape=rhombus;perimeter=rhombusPerimeter;whiteSpace=wrap;html=1;align=center;" vertex="1" parent="1">
          <mxGeometry x="-552" y="135" width="120" height="60" as="geometry" />
        </mxCell>
        <mxCell id="llGVALfnyq3asNNG6BGE-78" value="" style="endArrow=none;html=1;rounded=0;fontSize=12;startSize=8;endSize=8;curved=1;exitX=0.5;exitY=1;exitDx=0;exitDy=0;entryX=0;entryY=0.25;entryDx=0;entryDy=0;" edge="1" parent="1" source="llGVALfnyq3asNNG6BGE-77" target="llGVALfnyq3asNNG6BGE-5">
          <mxGeometry relative="1" as="geometry">
            <mxPoint x="-355" y="29" as="sourcePoint" />
            <mxPoint x="-289" y="92" as="targetPoint" />
          </mxGeometry>
        </mxCell>
        <mxCell id="llGVALfnyq3asNNG6BGE-79" value="" style="endArrow=none;html=1;rounded=0;fontSize=12;startSize=8;endSize=8;curved=0;entryX=0.5;entryY=0;entryDx=0;entryDy=0;exitX=0;exitY=0;exitDx=0;exitDy=0;" edge="1" parent="1" source="llGVALfnyq3asNNG6BGE-2" target="llGVALfnyq3asNNG6BGE-77">
          <mxGeometry relative="1" as="geometry">
            <mxPoint x="-494" y="-58" as="sourcePoint" />
            <mxPoint x="-289" y="92" as="targetPoint" />
            <Array as="points">
              <mxPoint x="-124" y="-69" />
              <mxPoint x="-584" y="-91" />
            </Array>
          </mxGeometry>
        </mxCell>
        <mxCell id="llGVALfnyq3asNNG6BGE-81" value="1-n" style="text;html=1;align=center;verticalAlign=middle;whiteSpace=wrap;rounded=0;fontSize=16;" vertex="1" parent="1">
          <mxGeometry x="-434" y="197" width="60" height="30" as="geometry" />
        </mxCell>
        <mxCell id="llGVALfnyq3asNNG6BGE-82" value="1-1" style="text;html=1;align=center;verticalAlign=middle;whiteSpace=wrap;rounded=0;fontSize=16;" vertex="1" parent="1">
          <mxGeometry x="-209" y="-105" width="60" height="30" as="geometry" />
        </mxCell>
        <mxCell id="llGVALfnyq3asNNG6BGE-83" value="Thuoc" style="shape=rhombus;perimeter=rhombusPerimeter;whiteSpace=wrap;html=1;align=center;" vertex="1" parent="1">
          <mxGeometry x="-33" y="-203" width="120" height="60" as="geometry" />
        </mxCell>
        <mxCell id="llGVALfnyq3asNNG6BGE-84" value="" style="endArrow=none;html=1;rounded=0;fontSize=12;startSize=8;endSize=8;curved=0;exitX=0;exitY=0.5;exitDx=0;exitDy=0;entryX=0;entryY=0;entryDx=0;entryDy=0;" edge="1" parent="1" source="llGVALfnyq3asNNG6BGE-83" target="llGVALfnyq3asNNG6BGE-5">
          <mxGeometry relative="1" as="geometry">
            <mxPoint x="-598" y="353.5" as="sourcePoint" />
            <mxPoint x="-217" y="316" as="targetPoint" />
            <Array as="points">
              <mxPoint x="-677" y="-139" />
              <mxPoint x="-602" y="248" />
            </Array>
          </mxGeometry>
        </mxCell>
        <mxCell id="llGVALfnyq3asNNG6BGE-86" value="" style="endArrow=none;html=1;rounded=0;fontSize=12;startSize=8;endSize=8;curved=0;exitX=1;exitY=0.5;exitDx=0;exitDy=0;entryX=0.5;entryY=0;entryDx=0;entryDy=0;" edge="1" parent="1" source="llGVALfnyq3asNNG6BGE-83" target="llGVALfnyq3asNNG6BGE-3">
          <mxGeometry relative="1" as="geometry">
            <mxPoint x="239" y="32" as="sourcePoint" />
            <mxPoint x="203" y="94" as="targetPoint" />
            <Array as="points">
              <mxPoint x="417" y="-127" />
            </Array>
          </mxGeometry>
        </mxCell>
        <mxCell id="llGVALfnyq3asNNG6BGE-87" value="1-n" style="text;html=1;align=center;verticalAlign=middle;whiteSpace=wrap;rounded=0;fontSize=16;" vertex="1" parent="1">
          <mxGeometry x="-548" y="281" width="60" height="30" as="geometry" />
        </mxCell>
        <mxCell id="llGVALfnyq3asNNG6BGE-88" value="1-1" style="text;html=1;align=center;verticalAlign=middle;whiteSpace=wrap;rounded=0;fontSize=16;" vertex="1" parent="1">
          <mxGeometry x="251" y="-184" width="60" height="30" as="geometry" />
        </mxCell>
        <mxCell id="llGVALfnyq3asNNG6BGE-89" value="Thuoc" style="shape=rhombus;perimeter=rhombusPerimeter;whiteSpace=wrap;html=1;align=center;" vertex="1" parent="1">
          <mxGeometry x="233" y="509" width="120" height="60" as="geometry" />
        </mxCell>
        <mxCell id="llGVALfnyq3asNNG6BGE-90" value="" style="endArrow=none;html=1;rounded=0;fontSize=12;startSize=8;endSize=8;curved=0;exitX=0;exitY=0.5;exitDx=0;exitDy=0;entryX=0.5;entryY=1;entryDx=0;entryDy=0;" edge="1" parent="1" source="llGVALfnyq3asNNG6BGE-89" target="llGVALfnyq3asNNG6BGE-5">
          <mxGeometry relative="1" as="geometry">
            <mxPoint x="161" y="331" as="sourcePoint" />
            <mxPoint x="-118" y="355" as="targetPoint" />
            <Array as="points">
              <mxPoint x="-6" y="576" />
            </Array>
          </mxGeometry>
        </mxCell>
        <mxCell id="llGVALfnyq3asNNG6BGE-91" value="" style="endArrow=none;html=1;rounded=0;fontSize=12;startSize=8;endSize=8;curved=1;exitX=0;exitY=0.25;exitDx=0;exitDy=0;entryX=1;entryY=0;entryDx=0;entryDy=0;" edge="1" parent="1" source="llGVALfnyq3asNNG6BGE-6" target="llGVALfnyq3asNNG6BGE-89">
          <mxGeometry relative="1" as="geometry">
            <mxPoint x="530" y="298" as="sourcePoint" />
            <mxPoint x="363" y="539" as="targetPoint" />
          </mxGeometry>
        </mxCell>
        <mxCell id="llGVALfnyq3asNNG6BGE-92" value="1-1" style="text;html=1;align=center;verticalAlign=middle;whiteSpace=wrap;rounded=0;fontSize=16;" vertex="1" parent="1">
          <mxGeometry x="398" y="424" width="60" height="30" as="geometry" />
        </mxCell>
        <mxCell id="llGVALfnyq3asNNG6BGE-93" value="1-n" style="text;html=1;align=center;verticalAlign=middle;whiteSpace=wrap;rounded=0;fontSize=16;" vertex="1" parent="1">
          <mxGeometry x="68" y="521" width="60" height="30" as="geometry" />
        </mxCell>
        <mxCell id="llGVALfnyq3asNNG6BGE-100" value="Thuoc" style="shape=rhombus;perimeter=rhombusPerimeter;whiteSpace=wrap;html=1;align=center;" vertex="1" parent="1">
          <mxGeometry x="345" y="179" width="120" height="60" as="geometry" />
        </mxCell>
        <mxCell id="llGVALfnyq3asNNG6BGE-101" value="" style="endArrow=none;html=1;rounded=0;fontSize=12;startSize=8;endSize=8;curved=1;entryX=0.25;entryY=1;entryDx=0;entryDy=0;exitX=1;exitY=0;exitDx=0;exitDy=0;" edge="1" parent="1" source="llGVALfnyq3asNNG6BGE-100" target="llGVALfnyq3asNNG6BGE-3">
          <mxGeometry relative="1" as="geometry">
            <mxPoint x="406" y="112" as="sourcePoint" />
            <mxPoint x="517" y="112" as="targetPoint" />
          </mxGeometry>
        </mxCell>
        <mxCell id="llGVALfnyq3asNNG6BGE-102" value="1-n" style="text;html=1;align=center;verticalAlign=middle;whiteSpace=wrap;rounded=0;fontSize=16;" vertex="1" parent="1">
          <mxGeometry x="496" y="152" width="60" height="30" as="geometry" />
        </mxCell>
        <mxCell id="llGVALfnyq3asNNG6BGE-103" value="" style="endArrow=none;html=1;rounded=0;fontSize=12;startSize=8;endSize=8;curved=1;entryX=0;entryY=1;entryDx=0;entryDy=0;exitX=1;exitY=0.25;exitDx=0;exitDy=0;" edge="1" parent="1" source="llGVALfnyq3asNNG6BGE-4" target="llGVALfnyq3asNNG6BGE-100">
          <mxGeometry relative="1" as="geometry">
            <mxPoint x="375" y="290" as="sourcePoint" />
            <mxPoint x="542" y="132" as="targetPoint" />
          </mxGeometry>
        </mxCell>
        <mxCell id="llGVALfnyq3asNNG6BGE-105" value="GIAOVIEN(&lt;u&gt;MaGV&lt;/u&gt;,HoTen,DTGV,MaKhoa)" style="text;html=1;align=center;verticalAlign=middle;whiteSpace=wrap;rounded=0;fontSize=16;" vertex="1" parent="1">
          <mxGeometry x="-602" y="735" width="453" height="30" as="geometry" />
        </mxCell>
        <mxCell id="llGVALfnyq3asNNG6BGE-106" value="MONHOC(&lt;u&gt;MaMH&lt;/u&gt;,TenMon,MaKhoa,MaGV)" style="text;html=1;align=center;verticalAlign=middle;whiteSpace=wrap;rounded=0;fontSize=16;" vertex="1" parent="1">
          <mxGeometry x="-597" y="844" width="453" height="30" as="geometry" />
        </mxCell>
        <mxCell id="llGVALfnyq3asNNG6BGE-107" value="MONHOC_LOP(&lt;u&gt;MaMH&lt;/u&gt;,&lt;u&gt;MaLop&lt;/u&gt;)" style="text;html=1;align=center;verticalAlign=middle;whiteSpace=wrap;rounded=0;fontSize=16;" vertex="1" parent="1">
          <mxGeometry x="-642" y="928" width="453" height="30" as="geometry" />
        </mxCell>
        <mxCell id="llGVALfnyq3asNNG6BGE-108" value="LOP(&lt;u&gt;MaLop&lt;/u&gt;,TenLop,SiSo,MaKhoa)" style="text;html=1;align=center;verticalAlign=middle;whiteSpace=wrap;rounded=0;fontSize=16;" vertex="1" parent="1">
          <mxGeometry x="-626" y="1012" width="453" height="30" as="geometry" />
        </mxCell>
        <mxCell id="llGVALfnyq3asNNG6BGE-109" value="LOP_PHONGHOC(&lt;u&gt;MaLop,SoPhong&lt;/u&gt;)" style="text;html=1;align=center;verticalAlign=middle;whiteSpace=wrap;rounded=0;fontSize=16;" vertex="1" parent="1">
          <mxGeometry x="-626" y="1091" width="453" height="30" as="geometry" />
        </mxCell>
        <mxCell id="llGVALfnyq3asNNG6BGE-110" value="PHONGHOC(&lt;u&gt;SoPhong&lt;/u&gt;,ChucNang)" style="text;html=1;align=center;verticalAlign=middle;whiteSpace=wrap;rounded=0;fontSize=16;" vertex="1" parent="1">
          <mxGeometry x="-630.5" y="1170" width="453" height="30" as="geometry" />
        </mxCell>
        <mxCell id="llGVALfnyq3asNNG6BGE-111" value="KHOA(&lt;u&gt;MaKhoa&lt;/u&gt;,TenKhoa,DTKhoa)" style="text;html=1;align=center;verticalAlign=middle;whiteSpace=wrap;rounded=0;fontSize=16;" vertex="1" parent="1">
          <mxGeometry x="-100" y="968" width="453" height="30" as="geometry" />
        </mxCell>
        <mxCell id="llGVALfnyq3asNNG6BGE-112" value="LICHBAOGIANG(NgayDay,BaiDay,TuTiet,DenTient,LyThuyet,GhiChu,MaMH,MaLop,MaPhong,MaGV)" style="text;html=1;align=center;verticalAlign=middle;whiteSpace=wrap;rounded=0;fontSize=16;" vertex="1" parent="1">
          <mxGeometry x="-1579" y="921" width="990" height="30" as="geometry" />
        </mxCell>
        <mxCell id="llGVALfnyq3asNNG6BGE-113" value="lLYTHUYET" style="ellipse;whiteSpace=wrap;html=1;align=center;" vertex="1" parent="1">
          <mxGeometry x="-60" y="292" width="100" height="40" as="geometry" />
        </mxCell>
        <mxCell id="llGVALfnyq3asNNG6BGE-114" value="GHICHU" style="ellipse;whiteSpace=wrap;html=1;align=center;" vertex="1" parent="1">
          <mxGeometry x="-323" y="431" width="100" height="40" as="geometry" />
        </mxCell>
        <mxCell id="llGVALfnyq3asNNG6BGE-115" value="" style="endArrow=none;html=1;rounded=0;fontSize=12;startSize=8;endSize=8;curved=1;exitX=0;exitY=0.5;exitDx=0;exitDy=0;entryX=1;entryY=0.5;entryDx=0;entryDy=0;" edge="1" parent="1" source="llGVALfnyq3asNNG6BGE-113" target="llGVALfnyq3asNNG6BGE-5">
          <mxGeometry relative="1" as="geometry">
            <mxPoint x="-229" y="234" as="sourcePoint" />
            <mxPoint x="-155" y="300" as="targetPoint" />
          </mxGeometry>
        </mxCell>
        <mxCell id="llGVALfnyq3asNNG6BGE-116" value="" style="endArrow=none;html=1;rounded=0;fontSize=12;startSize=8;endSize=8;curved=1;exitX=0.744;exitY=0.107;exitDx=0;exitDy=0;entryX=0.25;entryY=1;entryDx=0;entryDy=0;exitPerimeter=0;" edge="1" parent="1" source="llGVALfnyq3asNNG6BGE-114" target="llGVALfnyq3asNNG6BGE-5">
          <mxGeometry relative="1" as="geometry">
            <mxPoint x="-50" y="322" as="sourcePoint" />
            <mxPoint x="-105" y="320" as="targetPoint" />
          </mxGeometry>
        </mxCell>
        <mxCell id="llGVALfnyq3asNNG6BGE-117" value="" style="endArrow=classic;html=1;rounded=0;fontSize=12;startSize=8;endSize=8;curved=1;entryX=0.346;entryY=-0.043;entryDx=0;entryDy=0;entryPerimeter=0;exitX=0.75;exitY=1;exitDx=0;exitDy=0;" edge="1" parent="1" source="llGVALfnyq3asNNG6BGE-105" target="llGVALfnyq3asNNG6BGE-111">
          <mxGeometry width="50" height="50" relative="1" as="geometry">
            <mxPoint x="20" y="832" as="sourcePoint" />
            <mxPoint x="70" y="782" as="targetPoint" />
          </mxGeometry>
        </mxCell>
        <mxCell id="llGVALfnyq3asNNG6BGE-118" value="" style="endArrow=classic;html=1;rounded=0;fontSize=12;startSize=8;endSize=8;curved=1;entryX=0.356;entryY=0.981;entryDx=0;entryDy=0;entryPerimeter=0;exitX=0.75;exitY=0;exitDx=0;exitDy=0;" edge="1" parent="1" source="llGVALfnyq3asNNG6BGE-106" target="llGVALfnyq3asNNG6BGE-105">
          <mxGeometry width="50" height="50" relative="1" as="geometry">
            <mxPoint x="-660" y="814" as="sourcePoint" />
            <mxPoint x="-610" y="764" as="targetPoint" />
          </mxGeometry>
        </mxCell>
        <mxCell id="llGVALfnyq3asNNG6BGE-119" value="" style="endArrow=classic;html=1;rounded=0;fontSize=12;startSize=8;endSize=8;curved=1;exitX=0.691;exitY=0.89;exitDx=0;exitDy=0;exitPerimeter=0;entryX=0.25;entryY=0;entryDx=0;entryDy=0;" edge="1" parent="1" source="llGVALfnyq3asNNG6BGE-106" target="llGVALfnyq3asNNG6BGE-111">
          <mxGeometry width="50" height="50" relative="1" as="geometry">
            <mxPoint x="-82" y="1116" as="sourcePoint" />
            <mxPoint x="-32" y="1066" as="targetPoint" />
          </mxGeometry>
        </mxCell>
        <mxCell id="llGVALfnyq3asNNG6BGE-120" value="" style="endArrow=classic;html=1;rounded=0;fontSize=12;startSize=8;endSize=8;curved=1;exitX=0.5;exitY=0;exitDx=0;exitDy=0;entryX=0.368;entryY=1.157;entryDx=0;entryDy=0;entryPerimeter=0;" edge="1" parent="1" source="llGVALfnyq3asNNG6BGE-107" target="llGVALfnyq3asNNG6BGE-106">
          <mxGeometry width="50" height="50" relative="1" as="geometry">
            <mxPoint x="-274" y="881" as="sourcePoint" />
            <mxPoint x="23" y="978" as="targetPoint" />
          </mxGeometry>
        </mxCell>
        <mxCell id="llGVALfnyq3asNNG6BGE-121" value="" style="endArrow=classic;html=1;rounded=0;fontSize=12;startSize=8;endSize=8;curved=1;exitX=0.682;exitY=1.062;exitDx=0;exitDy=0;entryX=0.344;entryY=-0.024;entryDx=0;entryDy=0;entryPerimeter=0;exitPerimeter=0;" edge="1" parent="1" source="llGVALfnyq3asNNG6BGE-107" target="llGVALfnyq3asNNG6BGE-108">
          <mxGeometry width="50" height="50" relative="1" as="geometry">
            <mxPoint x="-405" y="938" as="sourcePoint" />
            <mxPoint x="-420" y="889" as="targetPoint" />
          </mxGeometry>
        </mxCell>
        <mxCell id="llGVALfnyq3asNNG6BGE-122" value="" style="endArrow=classic;html=1;rounded=0;fontSize=12;startSize=8;endSize=8;curved=1;exitX=0.576;exitY=0.2;exitDx=0;exitDy=0;entryX=0.364;entryY=1.005;entryDx=0;entryDy=0;entryPerimeter=0;exitPerimeter=0;" edge="1" parent="1" source="llGVALfnyq3asNNG6BGE-109" target="llGVALfnyq3asNNG6BGE-108">
          <mxGeometry width="50" height="50" relative="1" as="geometry">
            <mxPoint x="-323" y="970" as="sourcePoint" />
            <mxPoint x="-460" y="1021" as="targetPoint" />
          </mxGeometry>
        </mxCell>
        <mxCell id="llGVALfnyq3asNNG6BGE-123" value="" style="endArrow=classic;html=1;rounded=0;fontSize=12;startSize=8;endSize=8;curved=1;exitX=0.692;exitY=1.152;exitDx=0;exitDy=0;exitPerimeter=0;" edge="1" parent="1" source="llGVALfnyq3asNNG6BGE-109" target="llGVALfnyq3asNNG6BGE-110">
          <mxGeometry width="50" height="50" relative="1" as="geometry">
            <mxPoint x="-355" y="1107" as="sourcePoint" />
            <mxPoint x="-451" y="1052" as="targetPoint" />
          </mxGeometry>
        </mxCell>
        <mxCell id="llGVALfnyq3asNNG6BGE-124" value="" style="endArrow=classic;html=1;rounded=0;fontSize=12;startSize=8;endSize=8;curved=1;entryX=0.343;entryY=1.024;entryDx=0;entryDy=0;entryPerimeter=0;exitX=0.75;exitY=1;exitDx=0;exitDy=0;" edge="1" parent="1" source="llGVALfnyq3asNNG6BGE-108" target="llGVALfnyq3asNNG6BGE-111">
          <mxGeometry width="50" height="50" relative="1" as="geometry">
            <mxPoint x="-355" y="1107" as="sourcePoint" />
            <mxPoint x="-451" y="1052" as="targetPoint" />
          </mxGeometry>
        </mxCell>
        <mxCell id="llGVALfnyq3asNNG6BGE-125" value="" style="endArrow=classic;html=1;rounded=0;fontSize=12;startSize=8;endSize=8;curved=1;exitX=0.5;exitY=1;exitDx=0;exitDy=0;entryX=0.66;entryY=1.105;entryDx=0;entryDy=0;entryPerimeter=0;" edge="1" parent="1" source="llGVALfnyq3asNNG6BGE-107" target="llGVALfnyq3asNNG6BGE-112">
          <mxGeometry width="50" height="50" relative="1" as="geometry">
            <mxPoint x="-872" y="1146" as="sourcePoint" />
            <mxPoint x="-968" y="1091" as="targetPoint" />
          </mxGeometry>
        </mxCell>
        <mxCell id="llGVALfnyq3asNNG6BGE-126" value="" style="endArrow=classic;html=1;rounded=0;fontSize=12;startSize=8;endSize=8;curved=1;exitX=0.329;exitY=0.129;exitDx=0;exitDy=0;entryX=0.75;entryY=1;entryDx=0;entryDy=0;exitPerimeter=0;" edge="1" parent="1" source="llGVALfnyq3asNNG6BGE-108" target="llGVALfnyq3asNNG6BGE-112">
          <mxGeometry width="50" height="50" relative="1" as="geometry">
            <mxPoint x="-405" y="968" as="sourcePoint" />
            <mxPoint x="-916" y="964" as="targetPoint" />
          </mxGeometry>
        </mxCell>
        <mxCell id="llGVALfnyq3asNNG6BGE-127" value="" style="endArrow=classic;html=1;rounded=0;fontSize=12;startSize=8;endSize=8;curved=1;entryX=0.782;entryY=0.99;entryDx=0;entryDy=0;entryPerimeter=0;" edge="1" parent="1" source="llGVALfnyq3asNNG6BGE-110" target="llGVALfnyq3asNNG6BGE-112">
          <mxGeometry width="50" height="50" relative="1" as="geometry">
            <mxPoint x="-467" y="1026" as="sourcePoint" />
            <mxPoint x="-826" y="961" as="targetPoint" />
          </mxGeometry>
        </mxCell>
        <mxCell id="llGVALfnyq3asNNG6BGE-128" value="" style="endArrow=classic;html=1;rounded=0;fontSize=12;startSize=8;endSize=8;curved=1;exitX=0.847;exitY=-0.114;exitDx=0;exitDy=0;entryX=0.354;entryY=0.905;entryDx=0;entryDy=0;entryPerimeter=0;exitPerimeter=0;" edge="1" parent="1" source="llGVALfnyq3asNNG6BGE-112" target="llGVALfnyq3asNNG6BGE-105">
          <mxGeometry width="50" height="50" relative="1" as="geometry">
            <mxPoint x="-405" y="968" as="sourcePoint" />
            <mxPoint x="-916" y="964" as="targetPoint" />
          </mxGeometry>
        </mxCell>
      </root>
    </mxGraphModel>
  </diagram>
</mxfile>
